<svg width="425" height="216" viewBox="0 0 425 216" fill="none" xmlns="http://www.w3.org/2000/svg">
<path opacity="0.3" d="M372.22 184.061C349.725 230.181 228.449 211.949 169.83 214.614C70.9042 219.112 26.2818 88.522 119.125 80.3986C180.565 75.0221 191.836 100.946 229.588 28.2213C256.134 -22.9178 313.923 1.92999 350.239 51.1747C350.94 52.1254 351.633 53.0841 352.318 54.053C378.796 91.5026 392.74 141.993 372.22 184.061V184.061Z" fill="url(#paint0_linear_6287_368184)"/>
<path opacity="0.3" d="M116.176 65.7569C116.176 65.7569 212.709 68.7391 193.075 22.4814C173.441 -23.7771 58.9111 55.0646 116.176 65.7569Z" fill="url(#paint1_linear_6287_368184)"/>
<path d="M407.48 213.443H27.8761C27.6993 213.443 27.5557 213.298 27.5557 213.12C27.5557 212.942 27.6993 212.798 27.8761 212.798H407.48C407.656 212.798 407.8 212.942 407.8 213.12C407.8 213.298 407.656 213.443 407.48 213.443Z" fill="#C4D3F7"/>
<path d="M9.11285 213.443H0.82043C0.643674 213.443 0.5 213.298 0.5 213.12C0.5 212.942 0.643674 212.798 0.82043 212.798H9.11285C9.28961 212.798 9.43328 212.942 9.43328 213.12C9.43328 213.298 9.28961 213.443 9.11285 213.443Z" fill="#C4D3F7"/>
<path d="M424.18 213.443H418.414C418.237 213.443 418.094 213.298 418.094 213.12C418.094 212.942 418.237 212.798 418.414 212.798H424.18C424.357 212.798 424.5 212.942 424.5 213.12C424.5 213.298 424.357 213.443 424.18 213.443Z" fill="#C4D3F7"/>
<path d="M373.838 128.851L373.747 140.96L373.523 171.152H114.224V128.851C114.224 128.851 98.5724 110.912 114.18 101.781C127.806 93.808 229.923 91.9609 244.03 91.9609C258.136 91.9609 360.256 93.8071 373.879 101.781C389.487 110.912 373.838 128.851 373.838 128.851Z" fill="#81A0EF"/>
<path d="M373.746 140.959L373.52 171.151H114.223V140.959H373.746Z" fill="#A3B9F3"/>
<path d="M373.3 101.726C366.463 101.726 360.536 106.326 359.017 112.812L356.884 131.014C352.608 149.271 336.282 162.472 317.05 163.22C317.05 163.22 262.299 166.06 244.03 166.06C225.76 166.06 171.01 163.22 171.01 163.22C151.779 162.472 135.452 149.271 131.177 131.014L129.045 112.812C127.526 106.326 121.598 101.726 114.761 101.726C106.105 101.726 99.3392 108.994 100.193 117.374L105.285 186.284C105.657 191.306 109.83 195.181 114.835 195.149L244.031 194.33L373.226 195.149C378.231 195.18 382.405 191.306 382.776 186.284L387.868 117.374C388.723 108.993 381.957 101.726 373.301 101.726H373.3Z" fill="#D5DFF9"/>
<path d="M131.534 194.892L130.201 202.265L128.873 209.623C128.478 211.808 127.205 213.314 125.755 213.314H124.287C122.887 213.314 121.645 211.907 121.208 209.823L119.625 202.265L118.115 195.05L131.533 194.892H131.534Z" fill="#C4D3F7"/>
<path d="M118.115 195.05L131.533 194.892L130.201 202.265H119.625L118.115 195.05Z" fill="#81A0EF"/>
<path d="M368.545 194.892L367.213 202.265L365.885 209.623C365.49 211.808 364.216 213.314 362.767 213.314H361.299C359.898 213.314 358.656 211.907 358.22 209.823L356.637 202.265L355.127 195.05L368.545 194.892H368.545Z" fill="#C4D3F7"/>
<path d="M355.127 195.05L368.545 194.892L367.213 202.265H356.638L355.127 195.05Z" fill="#81A0EF"/>
<path d="M289.591 148.156H265.812L224.541 120.513L188.145 160.898C188.145 160.898 131.319 172.957 162.924 130.054C162.924 130.054 206.002 91.3481 221.475 91.2862C236.948 91.2242 289.591 148.156 289.591 148.156Z" fill="#4C6BBB"/>
<path d="M267.886 142.761L227.116 112.04C225.087 110.511 222.245 110.636 220.357 112.336L192.935 137.024L192.537 136.577L219.959 111.889C222.058 110 225.218 109.861 227.473 111.56L268.243 142.281L267.886 142.761V142.761Z" fill="#C4D3F7"/>
<path d="M314.871 160.312L327.226 160.05C329.086 160.01 330.595 158.524 330.672 156.654C330.868 151.847 331.169 137.179 331.015 128.589C330.972 126.246 327.671 125.829 327.05 128.088L321.28 148.664L314.872 149.036V160.312H314.871Z" fill="#30374D"/>
<path d="M162.921 130.054L148.464 139.773L133.802 133.473C133.713 133.434 133.614 133.508 133.625 133.606L134.171 138.711C135.65 152.533 147.256 163 161.073 162.984C161.122 162.984 161.169 162.984 161.215 162.984L201.854 162.982H201.855C283.816 165.634 314.872 160.304 314.872 160.304V141.213L162.921 130.054Z" fill="#5780E9"/>
<path d="M260.701 155.445C244.516 155.445 225.563 155.355 205.118 155.084C190.362 154.889 178.242 153.44 169.095 150.778C161.862 148.672 156.474 145.812 153.081 142.275L153.51 141.858C156.83 145.318 162.129 148.125 169.262 150.201C178.356 152.848 190.423 154.289 205.126 154.483C266.14 155.291 313.878 154.491 314.353 154.483L314.364 155.083C314.048 155.089 292.828 155.444 260.701 155.444V155.445Z" fill="#A3B9F3"/>
<path d="M325.458 157.918C325.196 152.657 323.605 146.634 322.106 145.916L321.279 148.662L314.871 149.034V160.31L325.508 160.084C325.513 159.429 325.498 158.709 325.458 157.918H325.458Z" fill="#FAAAA4"/>
<path d="M195.623 113.404L179.155 106.399C177.717 105.788 177.341 103.944 178.436 102.879L198.56 83.302C199.182 82.6966 200.121 82.5284 200.937 82.8762L217.405 89.8812C218.842 90.4928 219.219 92.3363 218.124 93.4018L197.999 112.979C197.377 113.584 196.439 113.752 195.623 113.404Z" fill="#3C3C3F"/>
<path d="M214.624 94.0023L197.004 110.647C196.335 111.28 195.341 111.45 194.476 111.081L181.137 105.408C179.581 104.746 179.674 102.683 180.877 101.546L198.011 84.9582C198.679 84.3272 199.673 84.1555 200.539 84.5237L213.877 90.1975C215.434 90.8595 215.829 92.8641 214.625 94.0023H214.624Z" fill="#F9F9F9"/>
<path d="M212.838 92.6997L206.366 98.8135C206.12 99.0462 205.755 99.1082 205.437 98.9736L200.538 96.8894C199.966 96.646 200 95.8885 200.442 95.4707L206.736 89.3773C206.981 89.1455 207.346 89.0826 207.665 89.218L212.564 91.3023C213.136 91.5457 213.281 92.282 212.838 92.6997Z" fill="#C5DFFF"/>
<path d="M197.732 104.987C197.595 105.188 197.385 105.312 197.162 105.345C197.007 105.367 196.845 105.35 196.693 105.285L190.876 102.812C190.31 102.571 190.167 101.842 190.604 101.428C190.847 101.198 191.209 101.136 191.524 101.27L197.311 103.732C197.831 103.953 198.04 104.531 197.731 104.988L197.732 104.987Z" fill="#C5DFFF"/>
<path d="M195.513 107.408C195.371 107.603 195.158 107.715 194.935 107.743C194.788 107.759 194.636 107.738 194.494 107.678L188.385 105.08C187.832 104.844 187.687 104.135 188.107 103.725C188.114 103.718 188.12 103.713 188.126 103.707C188.365 103.472 188.728 103.408 189.042 103.541L195.103 106.119C195.643 106.35 195.85 106.945 195.513 107.408Z" fill="#C5DFFF"/>
<path d="M208.678 87.5254L205.887 86.3385C205.555 86.1969 205.452 85.8084 205.692 85.5978C205.827 85.4792 206.038 85.4535 206.225 85.5332L209.016 86.72C209.348 86.8616 209.451 87.2501 209.211 87.4608C209.076 87.5794 208.865 87.605 208.678 87.5254Z" fill="#F9F9F9"/>
<path d="M212.421 102.167C212.667 98.7616 208.85 99.3015 205.778 101.214C204.46 102.035 197.17 105.709 196.381 104.138L201.68 99.7449C202.808 98.8103 201.543 97.0792 200.311 97.8687C200.023 98.0527 199.729 98.2696 199.423 98.5094L187.757 108.269L192.959 115.512C192.959 115.512 212.418 102.206 212.422 102.166L212.421 102.167Z" fill="#FAAAA4"/>
<path d="M188.849 93.2218C188.849 93.2218 192.439 90.9181 195.303 89.0587C196.41 88.34 196.517 87.5648 196.177 86.9975C195.575 85.9947 194.607 85.6044 192.969 86.6355L176.884 96.7823L177.316 103.177C177.316 103.177 188.622 104.34 190.463 100.305C192.44 95.9716 188.848 93.2227 188.848 93.2227L188.849 93.2218Z" fill="#FAAAA4"/>
<path d="M160.154 119.144L177.318 103.155L176.886 96.7607L157.308 101.2C156.284 107.901 161.915 113.87 160.154 119.144Z" fill="#C66B3A"/>
<path d="M141.007 47.5846C140.965 47.9926 140.9 48.4139 140.816 48.844C140.594 48.605 140.393 48.3563 140.221 48.0935C136.174 45.4765 134.912 48.6564 132.434 51.3999C132.002 51.8796 131.246 51.6831 131.036 51.0707C130.721 50.1529 129.731 49.4538 127.026 50.3282C121.618 52.0761 127.009 59.5466 127.009 59.5466C127.009 59.5466 125.453 68.1853 124.501 70.3987C123.769 72.0989 120.676 76.3726 120.186 77.0461C120.463 76.8302 120.64 76.7417 120.64 76.7417C121.442 84.6927 136.177 80.2234 136.177 80.2234C136.177 80.2234 132.754 75.2336 135.019 71.9325C136.653 72.4077 138.457 72.6493 140.117 72.2493C142.55 71.6634 144.026 70.828 146.411 61.1131C149.283 49.4104 141.007 47.5846 141.007 47.5846Z" fill="#FAAAA4"/>
<path d="M146.165 60.708L145.958 62.0497C145.958 62.0497 146.876 62.1382 146.927 63.1082C146.978 64.0782 145.049 63.7215 145.049 63.7215L145.023 62.317L146.165 60.708Z" fill="#FAAAA4"/>
<path d="M166.138 129.869L138.217 146.7C134.934 141.016 130.738 132.462 125.478 119.6C124.808 117.961 124.093 116.32 123.525 114.791C110.948 80.8993 122.942 73.751 122.942 73.751C130.613 75.7892 134.362 75.8653 134.362 75.8653C164.24 83.0926 162.575 117.349 165.701 128.301C165.868 128.884 166.013 129.41 166.138 129.869Z" fill="#FCA16E"/>
<path d="M172.735 126.899L170.952 127.921L138.215 146.691L136.499 147.676L123.539 114.821L123.623 114.843L146.949 127.716L170.515 126.354L172.735 126.899Z" fill="#FCA16E"/>
<path d="M149.847 123.625C149.847 123.625 145.832 73.5813 129.386 77.2586C103.793 82.9812 132.73 134.555 141.925 142.686C151.119 150.816 192.955 115.514 192.955 115.514L187.753 108.271L149.847 123.625Z" fill="#FCA16E"/>
<path d="M145.744 143.95C145.634 143.95 145.525 143.948 145.418 143.945C141.712 143.814 136.914 138.906 131.158 129.358C127.375 123.084 124.398 116.765 123.761 115.39C123.691 115.239 123.758 115.06 123.908 114.991C124.057 114.923 124.233 114.987 124.302 115.137C124.933 116.5 127.9 122.799 131.671 129.052C137.236 138.281 141.997 143.223 145.439 143.345C153.391 143.629 170.195 132.568 172.427 131.075C172.563 130.983 172.747 131.02 172.839 131.156C172.932 131.294 172.896 131.482 172.758 131.574C171.711 132.276 167.5 135.058 162.532 137.779C155.056 141.876 149.411 143.951 145.744 143.951V143.95Z" fill="#FB813E"/>
<path d="M149.907 124.33C149.714 124.411 149.5 124.272 149.495 124.061C149.181 111.675 146.144 101.012 143.65 94.2466C141.313 87.9045 139.009 83.7202 138.416 82.682C138.335 82.5404 138.381 82.3608 138.52 82.2767C138.664 82.1899 138.849 82.2377 138.933 82.3829C139.542 83.4476 141.863 87.6691 144.209 94.0378C146.66 100.686 149.633 111.079 150.065 123.175C150.073 123.385 150.284 123.523 150.476 123.443C155.369 121.399 181.268 110.592 187.478 108.15C187.632 108.09 187.804 108.166 187.864 108.322C187.923 108.476 187.848 108.649 187.695 108.71C180.874 111.39 150.221 124.199 149.908 124.33H149.907Z" fill="white"/>
<path d="M146.546 42.0079C146.546 42.0079 142.928 41.0626 134.533 40.775C126.139 40.4874 114.69 46.8082 121.21 60.2154C123.963 65.8752 124.865 69.8852 125.121 69.3896C127.258 65.2495 127.362 61.4385 127.345 60.3986C134.978 59.0888 139.673 53.2423 142.08 49.1588C143.157 49.4925 144.211 50.0518 145.193 50.8625C145.193 50.8625 151.36 47.3525 146.547 42.0087L146.546 42.0079Z" fill="#282B30"/>
<path d="M134.65 58.9946C136.172 58.0869 136.675 56.1091 135.773 54.5773C134.871 53.0454 132.905 52.5394 131.383 53.4472C129.86 54.3549 129.357 56.3327 130.259 57.8645C131.162 59.3964 133.127 59.9024 134.65 58.9946Z" fill="#FAAAA4"/>
<path d="M84.4635 177.171L78.5316 184.394L71.6173 192.815L69.6772 195.179L55.246 212.753H51.3643L67.7355 192.815L69.6772 190.452L74.6499 184.394L80.5818 177.171H84.4635Z" fill="#C4D3F7"/>
<path d="M87.8717 212.753H83.99L69.6784 195.321L67.7368 192.957L60.8224 184.537L54.7725 177.171H58.6542L64.7042 184.537L69.6784 190.594L71.6185 192.957L87.8717 212.753Z" fill="#C4D3F7"/>
<path d="M101.074 174.145C101.074 174.982 100.697 175.738 100.084 176.285C99.4722 176.833 98.6279 177.171 97.6961 177.171H40.7513C38.8859 177.171 37.374 175.816 37.374 174.145C37.374 173.309 37.7516 172.553 38.3637 172.004C38.9743 171.456 39.8186 171.118 40.7521 171.118H97.6977C99.563 171.118 101.075 172.474 101.075 174.145H101.074Z" fill="#A3B9F3"/>
<path d="M88.6478 171.536C88.6478 172.699 81.5358 173.641 72.7634 173.641C63.9909 173.641 56.8789 172.699 56.8789 171.536C56.8789 171.393 56.9874 171.253 57.193 171.118H88.3345C88.5402 171.254 88.6486 171.394 88.6486 171.536H88.6478Z" fill="#C4D3F7"/>
<path d="M56.9766 112.001C56.9766 112.001 72.0754 117.015 65.1947 131.367C58.3141 145.719 69.1407 147.668 69.1407 147.668C69.1407 147.668 60.3209 144.94 66.2463 135.206C70.9001 127.56 74.8469 116.676 56.9766 112.001Z" fill="#FDD8D6"/>
<path d="M74.5162 147.662C74.5162 147.662 67.7457 143.597 71.3004 138.654C75.9253 132.221 75.3204 128.079 71.0996 127.188C71.0996 127.188 76.931 127.581 76.7294 132.821C76.5286 138.061 67.9489 141.594 74.5162 147.662Z" fill="#FDD8D6"/>
<path d="M84.1826 154.979H82.4072V156.212C82.4072 156.212 82.4072 156.218 82.4072 156.221V156.415C82.4072 156.453 82.4072 156.491 82.4072 156.529V157.513H84.2629C85.3788 157.513 86.2882 158.25 86.2882 159.373C86.2882 160.62 85.4575 161.634 84.218 161.634H82.408V164.349H84.1923C86.7541 164.341 88.8348 162.245 88.8348 159.664C88.8348 157.084 86.7485 154.98 84.1834 154.979H84.1826Z" fill="#F88C83"/>
<path d="M62.0576 168.561H75.6614V169.526C75.6614 170.475 74.8966 171.244 73.9543 171.244H63.7655C62.8232 171.244 62.0584 170.475 62.0584 169.526V168.561H62.0576Z" fill="#F6655A"/>
<path d="M84.1953 157.513H82.3789C82.3926 157.243 82.403 156.969 82.407 156.692C82.407 156.599 82.4086 156.507 82.4086 156.414V156.22C82.4086 156.143 82.407 156.049 82.407 155.939C82.407 155.685 82.4054 155.353 82.4054 154.979H84.184C84.1856 155.727 84.1872 156.31 84.1872 156.414C84.1872 156.678 84.1977 157.138 84.1961 157.513H84.1953Z" fill="#F6655A"/>
<path d="M82.4087 149.458V160.732C82.4087 164.262 80.3755 167.314 77.4224 168.768C76.2447 169.348 74.9208 169.674 73.5214 169.674H64.2292C59.3207 169.674 55.3418 165.671 55.3418 160.732V149.458H82.4079H82.4087Z" fill="#F88C83"/>
<path d="M58.3273 162.525H58.2847C58.1562 162.525 58.0518 162.42 58.0518 162.29V151.071C58.0518 150.929 58.165 150.815 58.3056 150.815C58.4462 150.815 58.5595 150.929 58.5595 151.071V162.29C58.5595 162.42 58.455 162.525 58.3265 162.525H58.3273Z" fill="white"/>
<path d="M82.4082 149.458V160.732C82.4082 164.262 80.375 167.314 77.4219 168.768C78.3425 168.019 78.9314 166.874 78.9314 165.59V149.458H82.4082Z" fill="#F6655A"/>
<path d="M84.1925 164.345H81.0635V161.631H84.1845C84.1756 162.418 84.1845 163.335 84.1933 164.345H84.1925Z" fill="#F6655A"/>
<defs>
<linearGradient id="paint0_linear_6287_368184" x1="243.587" y1="-0.204579" x2="257.575" y2="141.621" gradientUnits="userSpaceOnUse">
<stop stop-color="#FFB288"/>
<stop offset="1" stop-color="white" stop-opacity="0"/>
</linearGradient>
<linearGradient id="paint1_linear_6287_368184" x1="153.604" y1="8" x2="161.936" y2="81.9266" gradientUnits="userSpaceOnUse">
<stop stop-color="#FFB288"/>
<stop offset="1" stop-color="white" stop-opacity="0"/>
</linearGradient>
</defs>
</svg>
